<?xml version="1.0" encoding="iso-8859-1"?>
<!-- Generator: Adobe Illustrator 19.0.0, SVG Export Plug-In . SVG Version: 6.00 Build 0)  -->
<svg xmlns="http://www.w3.org/2000/svg" xmlns:xlink="http://www.w3.org/1999/xlink" version="1.1" id="Capa_1" x="0px" y="0px" viewBox="0 0 512 512" style="enable-background:new 0 0 512 512;" xml:space="preserve" width="512" height="512">
<g>
	<path style="fill:#DAD8DB;" d="M33.249,13.911c25.013,8.928,61.168,24.931,97.847,51.871c13.092,9.615,13.278,29.088,0.606,39.252   c-23.665,18.981-59.719,52.491-89.223,99.611C11.796,137.822,1.961,74.353,0.037,38.455C-0.913,20.719,16.521,7.939,33.249,13.911z   "/>
	<path style="fill:#C8C5C9;" d="M131.702,105.033c-20.745,16.639-51.007,44.45-78.034,82.798   c-14.329-44.123-19.666-83.417-20.96-108.258C31.864,63.361,47.345,51.679,62.2,57.138c19.752,7.257,47.385,19.712,76.153,39.68   C136.801,99.892,134.604,102.706,131.702,105.033z"/>
	<path style="fill:#ECEAEC;" d="M462.413,392.218l40.956,13.652c3.714,1.238,7.316-2.127,6.313-5.911   c-5.333-20.098-19.65-71.726-39.01-123.354h26.072c3.396,0,5.823-3.404,4.679-6.601c-29.476-82.34-87.727-138.194-121.17-165.008   c-12.653-10.145-12.409-29.622,0.662-39.223c15.824-11.621,31.49-21.1,46.266-28.961l-1.929,0.857   c-40.879,12.125-117.244,32.478-169.271,32.483C203.954,70.148,127.589,49.795,86.71,37.67l-1.929-0.857   c14.776,7.861,30.442,17.339,46.266,28.961c13.072,9.6,13.316,29.077,0.662,39.223c-33.443,26.814-91.694,82.668-121.17,165.008   c-1.144,3.197,1.283,6.601,4.679,6.601H41.29C21.93,328.233,7.613,379.861,2.28,399.96c-1.004,3.784,2.599,7.149,6.313,5.911   l40.956-13.652c-11.453,28.632-18.935,53.294-22.446,65.723c-1.048,3.71,2.407,7.087,6.107,6.004   c15.895-4.65,51.467-13.921,82.403-13.921l-6.149,24.595c-0.928,3.711,2.55,7.013,6.208,5.895l69.36-21.2l70.929,32.076   l0.038-0.089v0.089l70.929-32.076l69.36,21.2c3.658,1.118,7.136-2.185,6.208-5.895l-6.149-24.595   c30.936,0,66.509,9.272,82.403,13.921c3.7,1.082,7.155-2.294,6.107-6.004C481.348,445.512,473.866,420.851,462.413,392.218z"/>
	<path style="fill:#DAD8DB;" d="M478.751,13.911c-25.013,8.928-61.168,24.931-97.847,51.871   c-13.092,9.615-13.342,29.031-0.606,39.252c23.66,18.988,59.719,52.491,89.223,99.611c30.683-66.822,40.518-130.291,42.442-166.189   C512.913,20.719,495.479,7.939,478.751,13.911z"/>
	<circle style="fill:#4B3F4E;" cx="156.903" cy="243.573" r="16.516"/>
	<circle style="fill:#4B3F4E;" cx="355.097" cy="243.573" r="16.516"/>
	<path style="fill:#DAD8DB;" d="M328.04,287.415c-3.145-3.29-8.371-3.411-11.677-0.258c-3.29,3.153-3.411,8.379-0.258,11.677   c14.492,15.153,22.476,35.04,22.476,55.984v45.661c0,22.766-20.742,41.29-46.242,41.29c-11.5,0-22.548-3.847-31.121-10.839   c-3.032-2.468-7.403-2.468-10.436,0c-8.573,6.992-19.621,10.839-31.121,10.839c-25.5,0-46.242-18.524-46.242-41.29v-45.661   c0-20.96,7.984-40.839,22.484-55.984c3.153-3.29,3.04-8.524-0.258-11.677c-3.282-3.153-8.516-3.048-11.677,0.258   c-17.452,18.234-27.065,42.169-27.065,67.403v47.185c0,53.798,43.774,97.573,97.573,97.573h3.048   c53.798,0,97.573-43.774,97.573-97.573v-47.185C355.097,329.601,345.492,305.665,328.04,287.415z M257.524,483.061h-3.048   c-25.989,0-49.099-12.345-63.943-31.424c8.714,4.227,18.614,6.65,29.128,6.65c13.065,0,25.742-3.774,36.339-10.726   c10.597,6.952,23.274,10.726,36.339,10.726c10.514,0,20.414-2.422,29.128-6.65C306.623,470.716,283.513,483.061,257.524,483.061z"/>
	<path style="fill:#B6B1B7;" d="M261.219,430.932c-3.069-2.503-7.369-2.503-10.437,0c-8.572,6.991-19.62,10.838-31.12,10.838   c-3.948,0-7.779-0.449-11.436-1.289c-5.147-1.182-10.031,2.713-10.031,7.995l0,0c0,3.896,2.727,7.227,6.523,8.103   c4.788,1.105,9.788,1.707,14.945,1.707c13.065,0,25.742-3.774,36.339-10.726c10.597,6.952,23.274,10.726,36.339,10.726   c5.157,0,10.157-0.602,14.945-1.707c3.796-0.876,6.523-4.208,6.523-8.103l0,0c0-5.282-4.884-9.177-10.031-7.995   c-3.657,0.84-7.488,1.289-11.436,1.289C280.839,441.77,269.791,437.924,261.219,430.932z"/>
	<path style="fill:#ADA7AE;" d="M256,441.843L256,441.843c-4.561,0-8.258-3.697-8.258-8.258v-24.774h16.516v24.774   C264.258,438.146,260.561,441.843,256,441.843z"/>
	<path style="fill:#5D5360;" d="M260.129,416.992h-8.258c-15.963,0-28.903-12.94-28.903-28.903v0   c0-15.963,12.94-28.903,28.903-28.903h8.258c15.963,0,28.903,12.94,28.903,28.903v0   C289.032,404.052,276.092,416.992,260.129,416.992z"/>
	<path style="fill:#4B3F4E;" d="M268.387,400.552c-15.963,0-28.903-12.941-28.903-28.903v-9.575   c-9.738,4.649-16.516,14.505-16.516,26.015c0,15.963,12.941,28.903,28.903,28.903h8.258c11.479,0,21.309-6.744,25.974-16.44   H268.387z"/>
	<path style="fill:#C8C5C9;" d="M380.298,105.033c20.745,16.639,51.007,44.45,78.034,82.798   c14.329-44.123,19.666-83.417,20.96-108.258c0.844-16.212-14.637-27.894-29.491-22.435c-19.751,7.257-47.418,19.738-76.186,39.706   C375.166,99.918,377.396,102.706,380.298,105.033z"/>
	<path style="fill:#DAD8DB;" d="M173.419,425.327C28.903,421.198,53.664,187.753,53.653,187.765   c-9.291,9.698-31.915,50.956-43.114,82.24c-1.144,3.197,1.283,6.601,4.679,6.601H41.29C21.93,328.233,7.613,379.861,2.28,399.959   c-1.004,3.784,2.599,7.149,6.313,5.911l40.956-13.652c-11.453,28.633-18.935,53.294-22.446,65.723   c-1.048,3.71,2.407,7.087,6.107,6.005c15.895-4.65,51.467-13.921,82.403-13.921l-6.149,24.595c-0.928,3.711,2.55,7.013,6.208,5.895   l68.502-20.938C173.419,425.327,173.419,425.327,173.419,425.327z"/>
</g>















</svg>
